<?xml version="1.0" encoding="UTF-8" standalone="no"?>
<!DOCTYPE svg PUBLIC "-//W3C//DTD SVG 1.1//EN" "http://www.w3.org/Graphics/SVG/1.1/DTD/svg11.dtd">
<svg width="100%" height="100%" viewBox="0 0 448 300" version="1.1" xmlns="http://www.w3.org/2000/svg" xmlns:xlink="http://www.w3.org/1999/xlink" xml:space="preserve" xmlns:serif="http://www.serif.com/" style="fill-rule:evenodd;clip-rule:evenodd;stroke-linejoin:round;stroke-miterlimit:2;">
    <g transform="matrix(1,0,0,1,-1191.14,-705.329)">
        <g transform="matrix(0.534575,0,0,0.588567,692.748,266.881)">
            <g>
                <g transform="matrix(0.878336,0,0,0.943681,161.487,64.6803)">
                    <path d="M1304.9,1175.44C1321.32,1159.69 1337.73,1152.24 1354.27,1152.55C1371.09,1152.87 1387.73,1161.13 1404.28,1175.82C1406.09,1177.43 1409.1,1177.49 1411.01,1175.96C1412.91,1174.42 1412.98,1171.88 1411.17,1170.27C1392.52,1153.71 1373.45,1144.86 1354.48,1144.5C1335.6,1144.15 1316.51,1152.12 1297.75,1170.12C1296.02,1171.79 1296.21,1174.34 1298.18,1175.81C1300.15,1177.27 1303.16,1177.11 1304.9,1175.44Z"/>
                </g>
                <path d="M1298.08,1175.18C1316.61,1195.92 1334.09,1204.85 1350.47,1205.16C1368.98,1205.5 1386.6,1194.81 1403.42,1176.09C1404.88,1174.46 1404.61,1172.07 1402.82,1170.74C1401.04,1169.42 1398.4,1169.66 1396.94,1171.28C1382.1,1187.8 1366.98,1197.87 1350.64,1197.56C1336.11,1197.29 1321.01,1188.79 1304.58,1170.39C1303.12,1168.76 1300.48,1168.51 1298.69,1169.83C1296.9,1171.15 1296.62,1173.55 1298.08,1175.18Z"/>
                <path d="M1349.81,770.11L1345.19,1144.39C1345.16,1146.49 1347.02,1148.21 1349.33,1148.24C1351.63,1148.26 1353.53,1146.58 1353.56,1144.48L1358.18,770.195C1358.2,768.098 1356.35,766.377 1354.04,766.354C1351.74,766.33 1349.84,768.013 1349.81,770.11Z"/>
            </g>
            <g id="Layer1" transform="matrix(0.998795,0,0,1,4.98907,1.02254)">
                <g transform="matrix(0.653465,0,0,0.670266,412.039,405.483)">
                    <ellipse cx="1205.37" cy="1233.67" rx="27.229" ry="25.902"/>
                    <path d="M1205.37,1202.1C1195.81,1202.1 1187.16,1205.84 1181,1211.91C1175.28,1217.55 1171.73,1225.22 1171.73,1233.67C1171.73,1242.12 1175.28,1249.79 1181,1255.43C1187.16,1261.5 1195.81,1265.24 1205.37,1265.24C1214.92,1265.24 1223.58,1261.5 1229.74,1255.43C1235.46,1249.79 1239.01,1242.12 1239.01,1233.67C1239.01,1225.22 1235.46,1217.55 1229.74,1211.91C1223.58,1205.84 1214.92,1202.1 1205.37,1202.1ZM1205.37,1213.44C1211.2,1213.44 1216.44,1215.78 1220.19,1219.48C1223.92,1223.15 1226.19,1228.16 1226.19,1233.67C1226.19,1239.18 1223.92,1244.19 1220.19,1247.86C1216.44,1251.56 1211.2,1253.9 1205.37,1253.9C1199.54,1253.9 1194.3,1251.56 1190.54,1247.86C1186.82,1244.19 1184.55,1239.18 1184.55,1233.67C1184.55,1228.16 1186.82,1223.15 1190.54,1219.48C1194.3,1215.78 1199.54,1213.44 1205.37,1213.44Z"/>
                </g>
                <g transform="matrix(0.518738,0,0,0.543155,680.447,289.8)">
                    <ellipse cx="1205.37" cy="1233.67" rx="27.229" ry="25.902"/>
                    <path d="M1205.37,1200.77C1195.25,1200.77 1186.07,1204.74 1179.59,1211.2C1173.71,1217.05 1170.07,1224.95 1170.07,1233.67C1170.07,1242.39 1173.71,1250.29 1179.59,1256.14C1186.07,1262.6 1195.25,1266.57 1205.37,1266.57C1215.49,1266.57 1224.67,1262.6 1231.15,1256.14C1237.02,1250.29 1240.67,1242.39 1240.67,1233.67C1240.67,1224.95 1237.02,1217.05 1231.15,1211.2C1224.67,1204.74 1215.49,1200.77 1205.37,1200.77ZM1205.37,1214.76C1210.73,1214.76 1215.54,1216.96 1218.97,1220.38C1222.44,1223.83 1224.53,1228.52 1224.53,1233.67C1224.53,1238.82 1222.44,1243.51 1218.97,1246.96C1215.54,1250.38 1210.73,1252.58 1205.37,1252.58C1200.01,1252.58 1195.2,1250.38 1191.77,1246.96C1188.3,1243.51 1186.21,1238.82 1186.21,1233.67C1186.21,1228.52 1188.3,1223.83 1191.77,1220.38C1195.2,1216.96 1200.01,1214.76 1205.37,1214.76Z"/>
                </g>
                <g transform="matrix(0.438089,0,0,0.450418,572.299,516.703)">
                    <ellipse cx="1205.37" cy="1233.67" rx="27.229" ry="25.902"/>
                    <path d="M1205.37,1199.33C1194.88,1199.33 1185.38,1203.42 1178.63,1210.09C1172.44,1216.2 1168.58,1224.51 1168.58,1233.67C1168.58,1242.83 1172.44,1251.14 1178.63,1257.26C1185.38,1263.92 1194.88,1268.01 1205.37,1268.01C1215.85,1268.01 1225.36,1263.92 1232.1,1257.26C1238.3,1251.14 1242.16,1242.83 1242.16,1233.67C1242.16,1224.51 1238.3,1216.2 1232.1,1210.09C1225.36,1203.42 1215.85,1199.33 1205.37,1199.33ZM1205.37,1216.2C1210.28,1216.2 1214.69,1218.2 1217.85,1221.32C1221.09,1224.52 1223.04,1228.88 1223.04,1233.67C1223.04,1238.46 1221.09,1242.82 1217.85,1246.02C1214.69,1249.14 1210.28,1251.14 1205.37,1251.14C1200.46,1251.14 1196.05,1249.14 1192.89,1246.02C1189.65,1242.82 1187.7,1238.46 1187.7,1233.67C1187.7,1228.88 1189.65,1224.52 1192.89,1221.32C1196.05,1218.2 1200.46,1216.2 1205.37,1216.2Z"/>
                </g>
                <g transform="matrix(0.249243,0,0,0.257855,817.961,685.49)">
                    <ellipse cx="1205.37" cy="1233.67" rx="27.229" ry="25.902"/>
                    <path d="M1205.37,1193.04C1192.74,1193.04 1181.27,1197.93 1173.15,1205.97C1165.89,1213.16 1161.34,1222.91 1161.34,1233.67C1161.34,1244.43 1165.89,1254.17 1173.15,1261.37C1181.27,1269.41 1192.74,1274.3 1205.37,1274.3C1218,1274.3 1229.47,1269.41 1237.58,1261.37C1244.85,1254.17 1249.4,1244.43 1249.4,1233.67C1249.4,1222.91 1244.85,1213.16 1237.58,1205.97C1229.47,1197.93 1218,1193.04 1205.37,1193.04ZM1205.37,1222.5C1208.16,1222.5 1210.63,1223.72 1212.43,1225.5C1214.56,1227.61 1215.8,1230.51 1215.8,1233.67C1215.8,1236.83 1214.56,1239.73 1212.43,1241.84C1210.63,1243.62 1208.16,1244.84 1205.37,1244.84C1202.57,1244.84 1200.11,1243.62 1198.31,1241.84C1196.18,1239.73 1194.94,1236.83 1194.94,1233.67C1194.94,1230.51 1196.18,1227.61 1198.31,1225.5C1200.11,1223.72 1202.57,1222.5 1205.37,1222.5Z"/>
                </g>
                <g transform="matrix(0.249243,0,0,0.257855,926.095,757.858)">
                    <ellipse cx="1205.37" cy="1233.67" rx="27.229" ry="25.902"/>
                    <path d="M1205.37,1193.04C1192.74,1193.04 1181.27,1197.93 1173.15,1205.97C1165.89,1213.16 1161.34,1222.91 1161.34,1233.67C1161.34,1244.43 1165.89,1254.17 1173.15,1261.37C1181.27,1269.41 1192.74,1274.3 1205.37,1274.3C1218,1274.3 1229.47,1269.41 1237.58,1261.37C1244.85,1254.17 1249.4,1244.43 1249.4,1233.67C1249.4,1222.91 1244.85,1213.16 1237.58,1205.97C1229.47,1197.93 1218,1193.04 1205.37,1193.04ZM1205.37,1222.5C1208.16,1222.5 1210.63,1223.72 1212.43,1225.5C1214.56,1227.61 1215.8,1230.51 1215.8,1233.67C1215.8,1236.83 1214.56,1239.73 1212.43,1241.84C1210.63,1243.62 1208.16,1244.84 1205.37,1244.84C1202.57,1244.84 1200.11,1243.62 1198.31,1241.84C1196.18,1239.73 1194.94,1236.83 1194.94,1233.67C1194.94,1230.51 1196.18,1227.61 1198.31,1225.5C1200.11,1223.72 1202.57,1222.5 1205.37,1222.5Z"/>
                </g>
                <g transform="matrix(0.249243,0,0,0.257855,943.284,719.987)">
                    <ellipse cx="1205.37" cy="1233.67" rx="27.229" ry="25.902"/>
                    <path d="M1205.37,1193.04C1192.74,1193.04 1181.27,1197.93 1173.15,1205.97C1165.89,1213.16 1161.34,1222.91 1161.34,1233.67C1161.34,1244.43 1165.89,1254.17 1173.15,1261.37C1181.27,1269.41 1192.74,1274.3 1205.37,1274.3C1218,1274.3 1229.47,1269.41 1237.58,1261.37C1244.85,1254.17 1249.4,1244.43 1249.4,1233.67C1249.4,1222.91 1244.85,1213.16 1237.58,1205.97C1229.47,1197.93 1218,1193.04 1205.37,1193.04ZM1205.37,1222.5C1208.16,1222.5 1210.63,1223.72 1212.43,1225.5C1214.56,1227.61 1215.8,1230.51 1215.8,1233.67C1215.8,1236.83 1214.56,1239.73 1212.43,1241.84C1210.63,1243.62 1208.16,1244.84 1205.37,1244.84C1202.57,1244.84 1200.11,1243.62 1198.31,1241.84C1196.18,1239.73 1194.94,1236.83 1194.94,1233.67C1194.94,1230.51 1196.18,1227.61 1198.31,1225.5C1200.11,1223.72 1202.57,1222.5 1205.37,1222.5Z"/>
                </g>
                <g transform="matrix(0.745231,0,0,0.746926,165.606,102.832)">
                    <path d="M1318.06,1278.79C1324.95,1278.79 1330.54,1284.18 1330.54,1290.82C1330.54,1297.46 1324.95,1302.85 1318.06,1302.85C1311.17,1302.85 1305.57,1297.46 1305.57,1290.82C1305.57,1284.18 1311.17,1278.79 1318.06,1278.79ZM1318.06,1278.79C1324.95,1278.79 1330.54,1284.18 1330.54,1290.82C1330.54,1297.46 1324.95,1302.85 1318.06,1302.85C1311.17,1302.85 1305.57,1297.46 1305.57,1290.82C1305.57,1284.18 1311.17,1278.79 1318.06,1278.79Z"/>
                    <path d="M1318.54,1273.71L1318.06,1273.71C1312.92,1273.71 1308.26,1275.73 1304.94,1279.03C1301.87,1282.08 1299.95,1286.24 1299.95,1290.82C1299.95,1295.41 1301.87,1299.56 1304.94,1302.62C1308.26,1305.91 1312.92,1307.94 1318.06,1307.94L1318.54,1307.93C1323.49,1307.81 1327.96,1305.81 1331.17,1302.62C1334.25,1299.56 1336.16,1295.41 1336.16,1290.82C1336.16,1286.24 1334.25,1282.08 1331.17,1279.03C1327.96,1275.83 1323.49,1273.84 1318.54,1273.71ZM1318.06,1283.88L1318.41,1283.89C1320.16,1283.98 1321.72,1284.74 1322.87,1285.88C1324.15,1287.15 1324.92,1288.9 1324.92,1290.82C1324.92,1292.74 1324.15,1294.49 1322.87,1295.77C1321.72,1296.91 1320.16,1297.67 1318.41,1297.76L1318.06,1297.77C1316.17,1297.77 1314.47,1296.98 1313.25,1295.77C1311.96,1294.49 1311.19,1292.74 1311.19,1290.82C1311.19,1288.9 1311.96,1287.15 1313.25,1285.88C1314.47,1284.66 1316.17,1283.88 1318.06,1283.88Z"/>
                </g>
                <g transform="matrix(0.745231,0,0,0.746926,292.73,133.866)">
                    <path d="M1318.06,1278.79C1324.95,1278.79 1330.54,1284.18 1330.54,1290.82C1330.54,1297.46 1324.95,1302.85 1318.06,1302.85C1311.17,1302.85 1305.57,1297.46 1305.57,1290.82C1305.57,1284.18 1311.17,1278.79 1318.06,1278.79ZM1318.06,1278.79C1324.95,1278.79 1330.54,1284.18 1330.54,1290.82C1330.54,1297.46 1324.95,1302.85 1318.06,1302.85C1311.17,1302.85 1305.57,1297.46 1305.57,1290.82C1305.57,1284.18 1311.17,1278.79 1318.06,1278.79Z"/>
                    <path d="M1318.54,1273.71L1318.06,1273.71C1312.92,1273.71 1308.26,1275.73 1304.94,1279.03C1301.87,1282.08 1299.95,1286.24 1299.95,1290.82C1299.95,1295.41 1301.87,1299.56 1304.94,1302.62C1308.26,1305.91 1312.92,1307.94 1318.06,1307.94L1318.54,1307.93C1323.49,1307.81 1327.96,1305.81 1331.17,1302.62C1334.25,1299.56 1336.16,1295.41 1336.16,1290.82C1336.16,1286.24 1334.25,1282.08 1331.17,1279.03C1327.96,1275.83 1323.49,1273.84 1318.54,1273.71ZM1318.06,1283.88L1318.41,1283.89C1320.16,1283.98 1321.72,1284.74 1322.87,1285.88C1324.15,1287.15 1324.92,1288.9 1324.92,1290.82C1324.92,1292.74 1324.15,1294.49 1322.87,1295.77C1321.72,1296.91 1320.16,1297.67 1318.41,1297.76L1318.06,1297.77C1316.17,1297.77 1314.47,1296.98 1313.25,1295.77C1311.96,1294.49 1311.19,1292.74 1311.19,1290.82C1311.19,1288.9 1311.96,1287.15 1313.25,1285.88C1314.47,1284.66 1316.17,1283.88 1318.06,1283.88Z"/>
                </g>
                <g transform="matrix(1.00121,0,0,1,-4.99509,-1.02254)">
                    <path d="M1198.93,762.903L1198.93,1231.85C1198.93,1233.94 1200.81,1235.64 1203.11,1235.64C1205.42,1235.64 1207.3,1233.94 1207.3,1231.85L1207.3,762.903C1207.3,760.806 1205.42,759.104 1203.11,759.104C1200.81,759.104 1198.93,760.806 1198.93,762.903Z"/>
                </g>
                <path d="M954.46,769.324L955.577,828.38C955.617,830.476 957.525,832.149 959.836,832.113C962.147,832.077 963.99,830.346 963.951,828.25L962.834,769.193C962.794,767.097 960.886,765.424 958.575,765.46C956.264,765.496 954.42,767.228 954.46,769.324Z"/>
                <g transform="matrix(1.00121,0,0,1,-4.99509,-1.02254)">
                    <path d="M1174.94,765.525L1174.94,853.153C1174.94,855.249 1176.82,856.951 1179.12,856.951C1181.43,856.951 1183.31,855.249 1183.31,853.153L1183.31,765.525C1183.31,763.429 1181.43,761.727 1179.12,761.727C1176.82,761.727 1174.94,763.429 1174.94,765.525Z"/>
                </g>
                <g transform="matrix(1.00121,0,0,1,-4.99509,-1.02254)">
                    <path d="M1176.03,850.599L1148.34,878.287C1146.79,879.839 1146.92,882.243 1148.62,883.653C1150.33,885.062 1152.98,884.947 1154.53,883.395L1182.22,855.707C1183.77,854.155 1183.65,851.75 1181.94,850.341C1180.23,848.931 1177.58,849.047 1176.03,850.599Z"/>
                </g>
                <g transform="matrix(1.00121,0,0,1,-4.99509,-1.02254)">
                    <path d="M1147.26,880.841L1147.26,1058.43C1147.26,1060.52 1149.13,1062.22 1151.44,1062.22C1153.75,1062.22 1155.62,1060.52 1155.62,1058.43L1155.62,880.841C1155.62,878.744 1153.75,877.042 1151.44,877.042C1149.13,877.042 1147.26,878.744 1147.26,880.841Z"/>
                </g>
                <g transform="matrix(1.00121,0,0,1,-4.99509,-1.02254)">
                    <path d="M1078.45,757.915L1078.45,874.278C1078.45,876.375 1080.33,878.077 1082.64,878.077C1084.94,878.077 1086.82,876.375 1086.82,874.278L1086.82,757.915C1086.82,755.818 1084.94,754.116 1082.64,754.116C1080.33,754.116 1078.45,755.818 1078.45,757.915Z"/>
                </g>
                <g transform="matrix(1.00121,0,0,1,-4.99509,-1.02254)">
                    <path d="M1079.54,876.832L1118.83,916.122C1120.38,917.674 1123.03,917.79 1124.74,916.38C1126.45,914.971 1126.57,912.566 1125.02,911.014L1085.73,871.724C1084.18,870.172 1081.53,870.056 1079.82,871.466C1078.12,872.876 1077.99,875.28 1079.54,876.832Z"/>
                </g>
                <g transform="matrix(1.00121,0,0,1,-4.99509,-1.02254)">
                    <path d="M1117.74,913.568L1117.74,995.848C1117.74,997.944 1119.62,999.646 1121.93,999.646C1124.24,999.646 1126.11,997.944 1126.11,995.848L1126.11,913.568C1126.11,911.472 1124.24,909.77 1121.93,909.77C1119.62,909.77 1117.74,911.472 1117.74,913.568Z"/>
                </g>
                <g transform="matrix(1.00121,0,0,1,-4.99509,-1.02254)">
                    <path d="M1063.78,753.941L1063.78,800.14C1063.78,802.237 1065.66,803.939 1067.96,803.939C1070.27,803.939 1072.15,802.237 1072.15,800.14L1072.15,753.941C1072.15,751.845 1070.27,750.143 1067.96,750.143C1065.66,750.143 1063.78,751.845 1063.78,753.941Z"/>
                </g>
                <g transform="matrix(1.00121,0,0,1,-4.99509,-1.02254)">
                    <path d="M1064.87,802.694L1100.73,838.559C1102.28,840.111 1104.93,840.226 1106.64,838.817C1108.35,837.407 1108.48,835.003 1106.92,833.451L1071.06,797.586C1069.51,796.034 1066.86,795.919 1065.15,797.328C1063.44,798.738 1063.32,801.142 1064.87,802.694Z"/>
                </g>
                <g transform="matrix(1.00121,0,0,1,-4.99509,-1.02254)">
                    <path d="M1099.65,836.005L1099.65,1071.58C1099.65,1073.68 1101.52,1075.38 1103.83,1075.38C1106.14,1075.38 1108.01,1073.68 1108.01,1071.58L1108.01,836.005C1108.01,833.908 1106.14,832.206 1103.83,832.206C1101.52,832.206 1099.65,833.908 1099.65,836.005Z"/>
                </g>
                <g transform="matrix(1.00121,0,0,1,-4.99509,-1.02254)">
                    <path d="M1215.27,762.573L1215.27,853.95C1215.27,856.046 1217.14,857.749 1219.45,857.749C1221.76,857.749 1223.63,856.046 1223.63,853.95L1223.63,762.573C1223.63,760.477 1221.76,758.775 1219.45,758.775C1217.14,758.775 1215.27,760.477 1215.27,762.573Z"/>
                </g>
                <g transform="matrix(1.00121,0,0,1,-4.99509,-1.02254)">
                    <path d="M1216.36,856.504L1244.44,884.584C1245.99,886.136 1248.63,886.251 1250.34,884.842C1252.05,883.432 1252.18,881.028 1250.63,879.476L1222.55,851.396C1221,849.844 1218.35,849.728 1216.64,851.138C1214.93,852.548 1214.8,854.952 1216.36,856.504Z"/>
                </g>
                <g transform="matrix(1.00121,0,0,1,-4.99509,-1.02254)">
                    <path d="M1243.35,882.03L1243.35,1032.92C1243.35,1035.01 1245.22,1036.71 1247.53,1036.71C1249.84,1036.71 1251.71,1035.01 1251.71,1032.92L1251.71,882.03C1251.71,879.933 1249.84,878.231 1247.53,878.231C1245.22,878.231 1243.35,879.933 1243.35,882.03Z"/>
                </g>
                <g transform="matrix(1.00121,0,0,1,-4.99509,-1.02254)">
                    <path d="M1271.7,754.622L1271.03,890.603C1271.02,892.7 1272.89,894.409 1275.19,894.419C1277.5,894.428 1279.38,892.734 1279.4,890.637L1280.06,754.656C1280.07,752.559 1278.21,750.85 1275.9,750.84C1273.59,750.831 1271.71,752.525 1271.7,754.622Z"/>
                </g>
                <g transform="matrix(1.00121,0,0,1,-4.99509,-1.02254)">
                    <path d="M1304.99,842.471L1304.99,953.199C1304.99,955.295 1306.87,956.997 1309.17,956.997C1311.48,956.997 1313.36,955.295 1313.36,953.199L1313.36,842.471C1313.36,840.375 1311.48,838.673 1309.17,838.673C1306.87,838.673 1304.99,840.375 1304.99,842.471Z"/>
                </g>
                <g transform="matrix(1.00121,0,0,1,-4.99509,-1.02254)">
                    <path d="M1224.8,936.857L1224.8,1070.78C1224.8,1072.88 1226.67,1074.58 1228.98,1074.58C1231.29,1074.58 1233.16,1072.88 1233.16,1070.78L1233.16,936.857C1233.16,934.76 1231.29,933.058 1228.98,933.058C1226.67,933.058 1224.8,934.76 1224.8,936.857Z"/>
                </g>
                <g transform="matrix(1.00121,0,0,1,-4.99509,-1.02254)">
                    <path d="M1350.12,795.88L1306.08,839.917C1304.53,841.469 1304.65,843.874 1306.36,845.283C1308.07,846.693 1310.72,846.577 1312.27,845.025L1356.31,800.988C1357.86,799.436 1357.73,797.032 1356.02,795.622C1354.31,794.212 1351.67,794.328 1350.12,795.88Z"/>
                </g>
                <g transform="matrix(1.00121,0,0,1,-4.99509,-1.02254)">
                    <path d="M1322.26,763.047L1322.26,887.431C1322.26,889.528 1324.13,891.23 1326.44,891.23C1328.75,891.23 1330.62,889.528 1330.62,887.431L1330.62,763.047C1330.62,760.95 1328.75,759.248 1326.44,759.248C1324.13,759.248 1322.26,760.95 1322.26,763.047Z"/>
                </g>
                <g transform="matrix(0.990324,0.0108696,0.0108827,0.98913,-1.29551,-4.71766)">
                    <path d="M1324.55,885.805L1274.88,935.481C1273.29,937.067 1273.39,939.497 1275.11,940.903C1276.82,942.31 1279.5,942.163 1281.08,940.577L1330.76,890.901C1332.34,889.315 1332.24,886.885 1330.53,885.479C1328.82,884.072 1326.14,884.219 1324.55,885.805Z"/>
                </g>
                <path d="M959.764,824.516L936.699,824.516C934.388,824.516 932.512,826.218 932.512,828.315C932.512,830.411 934.388,832.114 936.699,832.114L959.764,832.114C962.075,832.114 963.951,830.411 963.951,828.315C963.951,826.218 962.075,824.516 959.764,824.516Z"/>
                <path d="M932.512,828.339L932.916,885.836C932.931,887.932 934.819,889.623 937.13,889.61C939.441,889.596 941.306,887.884 941.291,885.787L940.886,828.291C940.871,826.194 938.983,824.503 936.672,824.516C934.361,824.53 932.497,826.243 932.512,828.339Z"/>
                <path d="M937.104,889.61L962.496,889.61C964.807,889.61 966.684,887.908 966.684,885.811C966.684,883.715 964.807,882.013 962.496,882.013L937.104,882.013C934.792,882.013 932.916,883.715 932.916,885.811C932.916,887.908 934.792,889.61 937.104,889.61Z"/>
                <path d="M958.309,885.785L957.175,1032.63C957.159,1034.72 959.022,1036.44 961.333,1036.45C963.644,1036.47 965.534,1034.78 965.55,1032.68L966.684,885.838C966.7,883.741 964.837,882.027 962.526,882.013C960.215,881.998 958.325,883.688 958.309,885.785Z"/>
                <path d="M961.403,1028.85L932.677,1028.6C930.366,1028.58 928.472,1030.27 928.449,1032.37C928.427,1034.46 930.285,1036.18 932.596,1036.2L961.322,1036.45C963.633,1036.47 965.528,1034.79 965.55,1032.69C965.572,1030.59 963.714,1028.87 961.403,1028.85Z"/>
                <path d="M928.449,1032.42L928.762,1084.69C928.775,1086.79 930.661,1088.48 932.972,1088.47C935.283,1088.46 937.149,1086.75 937.137,1084.65L936.824,1032.38C936.811,1030.28 934.925,1028.59 932.614,1028.6C930.303,1028.61 928.437,1030.33 928.449,1032.42Z"/>
                <path d="M932.903,1088.47L964.201,1088.78C966.512,1088.8 968.409,1087.12 968.435,1085.02C968.46,1082.93 966.605,1081.21 964.294,1081.18L932.996,1080.87C930.685,1080.85 928.788,1082.53 928.762,1084.63C928.737,1086.72 930.592,1088.44 932.903,1088.47Z"/>
                <path d="M960.06,1085.01L960.999,1191.43C961.018,1193.52 962.909,1195.21 965.22,1195.19C967.531,1195.18 969.392,1193.46 969.374,1191.37L968.435,1084.95C968.416,1082.86 966.525,1081.17 964.214,1081.18C961.903,1081.2 960.042,1082.92 960.06,1085.01Z"/>
                <path d="M965.216,1195.19L1281.48,1193.2C1283.79,1193.19 1285.65,1191.47 1285.63,1189.38C1285.62,1187.28 1283.73,1185.59 1281.42,1185.61L965.157,1187.6C962.846,1187.61 960.983,1189.33 960.999,1191.42C961.015,1193.52 962.905,1195.21 965.216,1195.19Z"/>
                <path d="M960.035,771.463L1014.09,771.893C1016.4,771.912 1018.29,770.225 1018.31,768.128C1018.33,766.032 1016.47,764.315 1014.16,764.296L960.109,763.866C957.798,763.848 955.905,765.535 955.885,767.631C955.864,769.728 957.724,771.445 960.035,771.463Z"/>
                <path d="M985.112,795.12L1052.24,751.817C1054.12,750.602 1054.56,748.229 1053.22,746.52C1051.88,744.812 1049.27,744.411 1047.38,745.626L980.258,788.929C978.375,790.144 977.933,792.517 979.272,794.226C980.612,795.935 983.228,796.335 985.112,795.12Z"/>
                <path d="M978.498,792.046L980.874,1173.93C980.887,1176.03 982.774,1177.72 985.085,1177.71C987.396,1177.7 989.262,1175.99 989.249,1173.89L986.872,792.003C986.859,789.907 984.972,788.214 982.661,788.226C980.35,788.238 978.485,789.949 978.498,792.046Z"/>
                <path d="M985.099,1177.71L1297.62,1175.16C1299.93,1175.14 1301.79,1173.42 1301.77,1171.33C1301.75,1169.23 1299.86,1167.55 1297.54,1167.56L985.024,1170.11C982.713,1170.13 980.854,1171.85 980.874,1173.95C980.895,1176.04 982.788,1177.73 985.099,1177.71Z"/>
                <path d="M1049.88,751.495C1071.49,753.603 1102.01,763.984 1148.27,765.812C1175.62,766.893 1208.44,765.011 1248.11,756.721C1269.96,752.153 1285.92,752.334 1298.42,754.641C1310.27,756.826 1318.99,760.906 1326.68,764.493C1333.93,767.877 1340.38,770.82 1347.39,771.845C1349.67,772.179 1351.82,770.769 1352.19,768.699C1352.56,766.63 1351,764.678 1348.72,764.345C1342.54,763.44 1336.9,760.721 1330.51,757.737C1322.24,753.878 1312.84,749.546 1300.09,747.196C1286.71,744.727 1269.62,744.427 1246.23,749.317C1207.45,757.421 1175.37,759.278 1148.63,758.222C1102.62,756.404 1072.27,746.038 1050.78,743.941C1048.48,743.717 1046.42,745.227 1046.17,747.312C1045.92,749.396 1047.59,751.271 1049.88,751.495Z"/>
                <g transform="matrix(1,0,0,1,-3.3641,-1.02254)">
                    <path d="M1290.64,1192.31L1305.12,1175.3C1306.53,1173.64 1306.19,1171.26 1304.37,1169.98C1302.54,1168.69 1299.9,1169 1298.49,1170.66L1284.01,1187.67C1282.6,1189.33 1282.94,1191.71 1284.77,1193C1286.59,1194.28 1289.23,1193.97 1290.64,1192.31Z"/>
                </g>
                <g transform="matrix(1,0,0,1,-25.7008,18.0342)">
                    <path d="M1059.85,1131.25C1111.93,1126.09 1151.94,1116.79 1194.58,1114.22C1212.86,1113.12 1231.63,1113.27 1252.07,1115.56C1266.17,1117.13 1292.64,1120.93 1316.82,1125.04C1333.84,1127.92 1349.72,1130.94 1359.31,1133.45C1361.54,1134.03 1363.86,1132.86 1364.5,1130.85C1365.13,1128.83 1363.85,1126.72 1361.63,1126.14C1351.85,1123.6 1335.68,1120.5 1318.36,1117.57C1293.98,1113.43 1267.31,1109.6 1253.09,1108.02C1232.09,1105.67 1212.81,1105.51 1194.02,1106.64C1151.27,1109.21 1111.15,1118.53 1058.94,1123.69C1056.64,1123.92 1054.98,1125.8 1055.23,1127.88C1055.48,1129.96 1057.55,1131.47 1059.85,1131.25Z"/>
                </g>
                <g transform="matrix(1,0,0,1,-40.5484,35.5907)">
                    <path d="M1059.33,1129.76C1110.8,1124.67 1160.75,1113.69 1209.22,1109.85C1230.84,1108.13 1252.17,1107.84 1273.2,1110.19C1289.74,1112.04 1314.33,1112.97 1335.69,1115.32C1345.31,1116.38 1354.27,1117.73 1361.47,1119.6C1363.69,1120.18 1366.01,1119.02 1366.65,1117C1367.29,1114.99 1366,1112.88 1363.78,1112.3C1356.21,1110.33 1346.81,1108.89 1336.7,1107.78C1315.34,1105.43 1290.76,1104.5 1274.22,1102.65C1252.62,1100.24 1230.71,1100.51 1208.49,1102.28C1159.97,1106.12 1109.95,1117.11 1058.42,1122.21C1056.12,1122.43 1054.46,1124.31 1054.71,1126.39C1054.96,1128.48 1057.03,1129.99 1059.33,1129.76Z"/>
                </g>
                <g transform="matrix(1,0,0,1,-3.3641,-1.02254)">
                    <path d="M1058.2,1134.92C1102.8,1130.5 1130.86,1123.62 1160.76,1120.41C1180.72,1118.26 1201.51,1117.77 1228.76,1120.82C1238.71,1121.93 1256.26,1125.61 1275.03,1129.95C1301.6,1136.09 1330.59,1143.57 1344.21,1147.12C1346.44,1147.7 1348.76,1146.53 1349.4,1144.52C1350.03,1142.5 1348.75,1140.4 1346.53,1139.82C1332.86,1136.25 1303.76,1128.75 1277.1,1122.59C1257.9,1118.15 1239.95,1114.41 1229.78,1113.27C1201.72,1110.14 1180.32,1110.65 1159.77,1112.86C1129.89,1116.08 1101.85,1122.95 1057.29,1127.36C1055,1127.59 1053.33,1129.47 1053.59,1131.55C1053.84,1133.64 1055.9,1135.14 1058.2,1134.92Z"/>
                </g>
                <g transform="matrix(1,7.84191e-05,7.84191e-05,1.01924,-3.42523,-16.0239)">
                    <path d="M1015.5,775.383L1017.05,1154.9C1017.05,1156.95 1018.94,1158.62 1021.25,1158.61C1023.56,1158.6 1025.43,1156.93 1025.42,1154.87L1023.87,775.355C1023.87,773.298 1021.98,771.634 1019.67,771.642C1017.36,771.65 1015.49,773.326 1015.5,775.383Z"/>
                </g>
                <g transform="matrix(1,0.000134565,0.000134565,1.02975,-3.46755,-23.8929)">
                    <path d="M1030.78,764.117L1032.45,1135.33C1032.46,1137.37 1034.35,1139.02 1036.66,1139.01C1038.97,1139 1040.84,1137.34 1040.83,1135.3L1039.15,764.085C1039.14,762.049 1037.26,760.403 1034.95,760.412C1032.63,760.421 1030.77,762.081 1030.78,764.117Z"/>
                </g>
                <g transform="matrix(1,0,0,1,-3.3641,-1.02254)">
                    <path d="M1050.25,752.018L1052.48,1131.15C1052.49,1133.25 1054.37,1134.94 1056.68,1134.93C1059,1134.92 1060.86,1133.21 1060.85,1131.11L1058.63,751.978C1058.62,749.881 1056.73,748.188 1054.42,748.199C1052.11,748.21 1050.24,749.922 1050.25,752.018Z"/>
                </g>
                <g transform="matrix(1.00121,0,0,1,-4.99509,-1.02254)">
                    <path d="M1273.8,938.029L1273.8,1086.33C1273.8,1088.42 1275.67,1090.13 1277.98,1090.13C1280.29,1090.13 1282.16,1088.42 1282.16,1086.33L1282.16,938.029C1282.16,935.932 1280.29,934.23 1277.98,934.23C1275.67,934.23 1273.8,935.932 1273.8,938.029Z"/>
                </g>
                <g transform="matrix(1.00121,0,0,1,-4.99509,-1.02254)">
                    <path d="M1272.12,888.066L1225.88,934.303C1224.33,935.855 1224.46,938.259 1226.16,939.669C1227.87,941.078 1230.52,940.963 1232.07,939.411L1278.31,893.174C1279.86,891.622 1279.73,889.218 1278.03,887.808C1276.32,886.399 1273.67,886.514 1272.12,888.066Z"/>
                </g>
            </g>
            <g id="Layer11" serif:id="Layer1" transform="matrix(-0.999185,0,0,1,2697.76,1.25555)">
                <path d="M962.765,769.194L963.882,828.251C963.921,830.313 962.108,832.017 959.835,832.052C957.562,832.088 955.685,830.442 955.646,828.379L954.529,769.323C954.49,767.26 956.303,765.557 958.576,765.521C960.849,765.486 962.726,767.132 962.765,769.194Z"/>
                <path d="M959.764,832.053L936.699,832.053C934.426,832.053 932.58,830.378 932.58,828.315C932.58,826.252 934.426,824.577 936.699,824.577L959.764,824.577C962.037,824.577 963.883,826.252 963.883,828.315C963.883,830.378 962.037,832.053 959.764,832.053Z"/>
                <path d="M940.818,828.291L941.222,885.787C941.237,887.85 939.403,889.536 937.13,889.549C934.857,889.562 932.999,887.898 932.985,885.835L932.58,828.339C932.566,826.276 934.399,824.59 936.673,824.577C938.946,824.564 940.803,826.228 940.818,828.291Z"/>
                <path d="M937.104,882.073L962.496,882.073C964.77,882.073 966.615,883.748 966.615,885.811C966.615,887.874 964.77,889.549 962.496,889.549L937.104,889.549C934.83,889.549 932.985,887.874 932.985,885.811C932.985,883.748 934.83,882.073 937.104,882.073Z"/>
                <path d="M966.615,885.837L965.481,1032.68C965.465,1034.74 963.607,1036.4 961.334,1036.39C959.061,1036.38 957.228,1034.69 957.244,1032.63L958.378,885.785C958.394,883.722 960.252,882.059 962.525,882.073C964.798,882.088 966.631,883.774 966.615,885.837Z"/>
                <path d="M961.323,1036.39L932.597,1036.14C930.324,1036.12 928.496,1034.43 928.518,1032.37C928.54,1030.3 930.403,1028.64 932.676,1028.66L961.402,1028.91C963.675,1028.93 965.503,1030.63 965.481,1032.69C965.459,1034.75 963.596,1036.41 961.323,1036.39Z"/>
                <path d="M936.755,1032.38L937.068,1084.65C937.081,1086.71 935.245,1088.4 932.972,1088.41C930.699,1088.42 928.843,1086.75 928.831,1084.69L928.518,1032.42C928.505,1030.36 930.341,1028.67 932.614,1028.66C934.887,1028.65 936.743,1030.32 936.755,1032.38Z"/>
                <path d="M932.995,1080.93L964.293,1081.25C966.566,1081.27 968.391,1082.96 968.366,1085.02C968.341,1087.09 966.475,1088.74 964.202,1088.72L932.904,1088.41C930.631,1088.38 928.806,1086.69 928.831,1084.63C928.856,1082.57 930.722,1080.91 932.995,1080.93Z"/>
                <path d="M968.366,1084.95L969.305,1191.37C969.323,1193.43 967.493,1195.12 965.22,1195.13C962.946,1195.15 961.086,1193.49 961.068,1191.43L960.129,1085.01C960.111,1082.95 961.941,1081.26 964.215,1081.25C966.488,1081.23 968.348,1082.89 968.366,1084.95Z"/>
                <path d="M965.158,1187.66L1281.42,1185.67C1283.69,1185.65 1285.55,1187.32 1285.56,1189.38C1285.58,1191.44 1283.75,1193.13 1281.47,1193.14L965.215,1195.13C962.942,1195.15 961.084,1193.49 961.068,1191.42C961.052,1189.36 962.885,1187.67 965.158,1187.66Z"/>
                <path d="M960.108,763.927L1014.16,764.357C1016.43,764.375 1018.26,766.065 1018.24,768.128C1018.22,770.191 1016.36,771.851 1014.09,771.833L960.036,771.402C957.763,771.384 955.933,769.695 955.953,767.632C955.973,765.569 957.835,763.909 960.108,763.927Z"/>
                <path d="M980.299,788.978L1047.42,745.675C1049.28,744.48 1051.85,744.875 1053.17,746.556C1054.48,748.237 1054.05,750.573 1052.19,751.768L985.071,795.071C983.218,796.266 980.645,795.872 979.328,794.19C978.011,792.509 978.446,790.173 980.299,788.978Z"/>
                <path d="M986.804,792.003L989.18,1173.89C989.193,1175.95 987.358,1177.64 985.085,1177.65C982.812,1177.66 980.956,1176 980.943,1173.93L978.566,792.046C978.553,789.983 980.388,788.298 982.662,788.287C984.935,788.275 986.791,789.94 986.804,792.003Z"/>
                <path d="M985.025,1170.17L1297.54,1167.62C1299.82,1167.61 1301.68,1169.27 1301.7,1171.33C1301.72,1173.39 1299.89,1175.08 1297.62,1175.1L985.099,1177.65C982.826,1177.67 980.963,1176.01 980.943,1173.94C980.923,1171.88 982.752,1170.19 985.025,1170.17Z"/>
                <path d="M1050.77,744.002C1072.26,746.098 1102.61,756.464 1148.63,758.283C1175.38,759.339 1207.46,757.482 1246.24,749.376C1269.62,744.489 1286.7,744.788 1300.08,747.255C1312.81,749.604 1322.21,753.934 1330.48,757.79C1336.88,760.778 1342.52,763.499 1348.71,764.405C1350.95,764.733 1352.48,766.653 1352.12,768.69C1351.76,770.726 1349.64,772.113 1347.4,771.785C1340.39,770.761 1333.96,767.819 1326.71,764.439C1319.01,760.849 1310.29,756.768 1298.44,754.581C1285.93,752.273 1269.96,752.091 1248.09,756.662C1208.43,764.95 1175.62,766.832 1148.27,765.751C1102.01,763.924 1071.5,753.542 1049.89,751.434C1047.63,751.214 1046,749.37 1046.24,747.318C1046.48,745.267 1048.51,743.781 1050.77,744.002Z"/>
                <g transform="matrix(1,0,0,1,-3.3641,-1.02254)">
                    <path d="M1284.07,1187.7L1298.55,1170.7C1299.94,1169.06 1302.53,1168.76 1304.32,1170.02C1306.12,1171.29 1306.45,1173.63 1305.07,1175.27L1290.58,1192.27C1289.19,1193.91 1286.61,1194.21 1284.81,1192.95C1283.01,1191.68 1282.68,1189.34 1284.07,1187.7Z"/>
                </g>
                <g transform="matrix(1,0,0,1,-25.7008,18.0342)">
                    <path d="M1058.95,1123.75C1111.16,1118.59 1151.28,1109.28 1194.03,1106.7C1212.81,1105.57 1232.09,1105.73 1253.09,1108.08C1267.3,1109.66 1293.97,1113.5 1318.35,1117.63C1335.67,1120.56 1351.84,1123.66 1361.61,1126.2C1363.79,1126.77 1365.06,1128.85 1364.43,1130.83C1363.8,1132.81 1361.52,1133.96 1359.33,1133.39C1349.73,1130.89 1333.85,1127.86 1316.83,1124.98C1292.65,1120.88 1266.18,1117.07 1252.08,1115.5C1231.63,1113.21 1212.86,1113.06 1194.57,1114.16C1151.93,1116.73 1111.92,1126.03 1059.84,1131.18C1057.58,1131.41 1055.55,1129.92 1055.3,1127.87C1055.05,1125.82 1056.69,1123.98 1058.95,1123.75Z"/>
                </g>
                <g transform="matrix(1,0,0,1,-40.5484,35.5907)">
                    <path d="M1058.43,1122.27C1109.96,1117.17 1159.97,1106.18 1208.5,1102.34C1230.71,1100.58 1252.61,1100.3 1274.21,1102.71C1290.75,1104.56 1315.33,1105.49 1336.69,1107.84C1346.8,1108.95 1356.2,1110.39 1363.76,1112.36C1365.94,1112.93 1367.21,1115 1366.58,1116.99C1365.95,1118.97 1363.67,1120.12 1361.49,1119.55C1354.28,1117.67 1345.33,1116.32 1335.7,1115.26C1314.33,1112.91 1289.75,1111.98 1273.21,1110.13C1252.17,1107.78 1230.84,1108.07 1209.21,1109.78C1160.75,1113.63 1110.79,1124.61 1059.32,1129.7C1057.06,1129.92 1055.03,1128.44 1054.78,1126.39C1054.53,1124.34 1056.17,1122.49 1058.43,1122.27Z"/>
                </g>
                <g transform="matrix(1,0,0,1,-3.3641,-1.02254)">
                    <path d="M1057.3,1127.42C1101.86,1123.02 1129.9,1116.14 1159.78,1112.92C1180.32,1110.71 1201.72,1110.2 1229.77,1113.34C1239.94,1114.47 1257.89,1118.21 1277.08,1122.64C1303.74,1128.81 1332.84,1136.31 1346.51,1139.88C1348.69,1140.45 1349.96,1142.52 1349.33,1144.5C1348.7,1146.48 1346.42,1147.63 1344.23,1147.06C1330.61,1143.51 1301.62,1136.03 1275.04,1129.89C1256.27,1125.55 1238.72,1121.87 1228.77,1120.76C1201.51,1117.71 1180.71,1118.2 1160.75,1120.35C1130.85,1123.57 1102.79,1130.44 1058.19,1134.86C1055.93,1135.08 1053.9,1133.6 1053.65,1131.55C1053.41,1129.49 1055.04,1127.65 1057.3,1127.42Z"/>
                </g>
                <g transform="matrix(1,7.84191e-05,7.84191e-05,1.01924,-3.42523,-16.0239)">
                    <path d="M1023.81,775.355L1025.35,1154.87C1025.36,1156.89 1023.52,1158.54 1021.25,1158.55C1018.97,1158.56 1017.12,1156.92 1017.11,1154.9L1015.57,775.383C1015.56,773.359 1017.4,771.709 1019.67,771.702C1021.94,771.694 1023.8,773.331 1023.81,775.355Z"/>
                </g>
                <g transform="matrix(1,0.000134565,0.000134565,1.02975,-3.46755,-23.8929)">
                    <path d="M1039.08,764.085L1040.76,1135.3C1040.77,1137.31 1038.93,1138.94 1036.66,1138.95C1034.38,1138.96 1032.53,1137.34 1032.52,1135.33L1030.84,764.116C1030.84,762.113 1032.67,760.479 1034.95,760.471C1037.22,760.462 1039.07,762.082 1039.08,764.085Z"/>
                </g>
                <g transform="matrix(1,0,0,1,-3.3641,-1.02254)">
                    <path d="M1058.56,751.978L1060.78,1131.11C1060.79,1133.17 1058.96,1134.86 1056.68,1134.87C1054.41,1134.88 1052.56,1133.21 1052.54,1131.15L1050.32,752.018C1050.31,749.955 1052.14,748.271 1054.42,748.26C1056.69,748.249 1058.55,749.915 1058.56,751.978Z"/>
                </g>
                <g transform="matrix(-0.694873,0,0,0.694307,2343.95,343.733)">
                    <g transform="matrix(1,0,0,1,0,5.71062)">
                        <path d="M1482.08,858.495C1483.05,851.967 1497.71,845.816 1500.68,851.707C1504.5,859.26 1511.47,887.632 1511.37,893.666C1511.27,899.682 1497.23,902.855 1493.82,897.893C1489.72,891.916 1480.94,866.193 1482.08,858.495Z" style="fill:rgb(10,8,8);"/>
                    </g>
                    <g transform="matrix(1.00646,0,0,0.99858,-9.10678,6.9555)">
                        <path d="M1461.14,876.401L1465.96,888.946L1456.33,888.946L1461.14,876.401Z"/>
                    </g>
                    <g transform="matrix(1,0,0,1,0,5.71062)">
                        <path d="M1462.66,871.675C1465.41,866.2 1476.9,856.565 1479.59,862.752C1482.11,868.527 1489.02,890.587 1489.9,894.936C1490.94,900.018 1478.84,901.947 1474.81,898.692C1470.36,895.107 1465.62,880.656 1463.24,873.431" style="fill:rgb(10,8,8);"/>
                    </g>
                    <g transform="matrix(1,0,0,1,0,5.71062)">
                        <path d="M1503.81,850.513C1507.18,843.652 1523.21,837.716 1526.11,847.534C1526.84,850.034 1525.63,853.869 1525.97,858.141C1526.98,870.627 1531.03,884.414 1530.89,887.377C1530.62,893.167 1517.46,896.306 1514.03,891.635C1510.31,886.573 1505.49,864.339 1503.72,853.226C1503.61,852.524 1503.23,850.843 1503.81,850.513Z" style="fill:rgb(10,8,8);"/>
                    </g>
                    <g transform="matrix(1,0.000741169,-0.000741169,1,1.88501,7.56497)">
                        <path d="M1554.1,851.042C1551.37,846.262 1548.51,842.155 1545.19,840.316C1540.22,838.44 1536.06,838.971 1532.51,841.36C1531.03,842.663 1529.89,844.654 1529.82,846.355L1543.89,848.648L1543.97,845.372C1545.77,846.032 1546.99,848.137 1548.63,849.083C1550.22,849.999 1551.73,850.107 1554.1,851.042Z"/>
                    </g>
                    <g transform="matrix(1,0,0,1,0,5.71062)">
                        <path d="M1531.25,850.984C1545.12,852.623 1558.22,856.265 1570.74,861.468C1576.22,867.526 1574.25,894.367 1569.96,905.735C1563.22,918.969 1550.72,932.664 1536.87,946.466L1535.62,1118.83C1535.62,1118.83 1463.36,1145.97 1462.84,1135.74C1462.78,1134.55 1472.38,954.117 1472.38,954.117C1462.22,936.512 1457.55,914.785 1455.82,890.858C1457.44,893.062 1463.07,893.371 1468.36,893.893C1469.55,901.981 1478.37,904.301 1484.63,903.572L1477.67,917.143L1489.1,905.993C1494.06,910.148 1501.59,910.387 1508.1,908.058C1502.29,916.465 1504.89,927.662 1511.91,940.325C1507,917.786 1505.76,901.15 1546.42,886.663L1554.05,900.574L1550.37,884.548C1553.54,884.46 1555.63,883.261 1556.74,881.05C1534.39,878.085 1525.53,863.743 1531.25,850.984Z"/>
                    </g>
                    <g transform="matrix(1,0,0,1,0,5.71062)">
                        <path d="M1529.9,870.567C1530.7,876.104 1531.55,881.612 1534.41,886.087C1539.6,886.192 1543.75,884.997 1546.87,882.504C1540.66,881.439 1535.08,877.057 1529.9,870.567Z"/>
                    </g>
                </g>
                <g transform="matrix(-0.688965,0,0,0.688404,2150.63,350.796)">
                    <g transform="matrix(1,0,0,1,0,5.71062)">
                        <path d="M1482.08,858.495C1483.05,851.967 1497.71,845.816 1500.68,851.707C1504.5,859.26 1511.47,887.632 1511.37,893.666C1511.27,899.682 1497.23,902.855 1493.82,897.893C1489.72,891.916 1480.94,866.193 1482.08,858.495Z" style="fill:rgb(10,8,8);"/>
                    </g>
                    <g transform="matrix(1.00646,0,0,0.99858,-9.10678,6.9555)">
                        <path d="M1461.14,876.401L1465.96,888.946L1456.33,888.946L1461.14,876.401Z"/>
                    </g>
                    <g transform="matrix(1,0,0,1,0,5.71062)">
                        <path d="M1462.66,871.675C1465.41,866.2 1476.9,856.565 1479.59,862.752C1482.11,868.527 1489.02,890.587 1489.9,894.936C1490.94,900.018 1478.84,901.947 1474.81,898.692C1470.36,895.107 1465.62,880.656 1463.24,873.431" style="fill:rgb(10,8,8);"/>
                    </g>
                    <g transform="matrix(1,0,0,1,0,5.71062)">
                        <path d="M1503.81,850.513C1507.18,843.652 1523.21,837.716 1526.11,847.534C1526.84,850.034 1525.63,853.869 1525.97,858.141C1526.98,870.627 1531.03,884.414 1530.89,887.377C1530.62,893.167 1517.46,896.306 1514.03,891.635C1510.31,886.573 1505.49,864.339 1503.72,853.226C1503.61,852.524 1503.23,850.843 1503.81,850.513Z" style="fill:rgb(10,8,8);"/>
                    </g>
                    <g transform="matrix(1,0,0,1,0,5.71062)">
                        <path d="M1554.1,851.042C1551.37,846.262 1548.51,842.155 1545.19,840.316C1540.22,838.44 1536.06,838.971 1532.51,841.36C1531.03,842.663 1529.89,844.654 1529.82,846.355L1543.89,848.648L1543.97,845.372C1545.77,846.032 1546.99,848.137 1548.63,849.083C1550.22,849.999 1551.73,850.107 1554.1,851.042Z"/>
                    </g>
                    <g transform="matrix(1,0,0,1,0,5.71062)">
                        <path d="M1531.25,850.984C1545.12,852.623 1558.22,856.265 1570.74,861.468C1576.22,867.526 1574.25,894.367 1569.96,905.735C1563.22,918.969 1550.72,932.664 1536.87,946.466L1530.74,1109.99C1530.74,1109.99 1462.65,1107.77 1461.48,1107.93C1460.3,1108.09 1472.38,954.117 1472.38,954.117C1462.22,936.512 1457.55,914.785 1455.82,890.858C1457.44,893.062 1463.07,893.371 1468.36,893.893C1469.55,901.981 1478.37,904.301 1484.63,903.572L1477.67,917.143L1489.1,905.993C1494.06,910.148 1501.59,910.387 1508.1,908.058C1502.29,916.465 1504.89,927.662 1511.91,940.325C1507,917.786 1505.76,901.15 1546.42,886.663L1554.05,900.574L1550.37,884.548C1553.54,884.46 1555.63,883.261 1556.74,881.05C1534.39,878.085 1525.53,863.743 1531.25,850.984Z"/>
                    </g>
                    <g transform="matrix(1,0,0,1,0,5.71062)">
                        <path d="M1529.9,870.567C1530.7,876.104 1531.55,881.612 1534.41,886.087C1539.6,886.192 1543.75,884.997 1546.87,882.504C1540.66,881.439 1535.08,877.057 1529.9,870.567Z"/>
                    </g>
                    <g transform="matrix(1,0,0,1,0,5.71062)">
                        <path d="M1527.83,849.991L1529.08,845.302L1530.74,847.397C1529.56,847.644 1528.61,848.771 1527.83,849.991Z"/>
                    </g>
                    <g transform="matrix(1,0,0,1,0,5.71062)">
                        <path d="M1553.3,851.72L1554.94,850.678L1556.34,852.823C1555.32,852.481 1554.3,852.124 1553.3,851.72Z" style="fill:none;"/>
                    </g>
                </g>
                <g transform="matrix(-1.05816,0,0,1.0573,2787.48,-69.5281)">
                    <g transform="matrix(1,0,0,1,0,5.71062)">
                        <path d="M1482.08,858.495C1483.05,851.967 1497.71,845.816 1500.68,851.707C1504.5,859.26 1511.47,887.632 1511.37,893.666C1511.27,899.682 1497.23,902.855 1493.82,897.893C1489.72,891.916 1480.94,866.193 1482.08,858.495Z" style="fill:rgb(10,8,8);"/>
                    </g>
                    <g transform="matrix(1.00646,0,0,0.99858,-9.10678,6.9555)">
                        <path d="M1461.14,876.401L1465.96,888.946L1456.33,888.946L1461.14,876.401Z"/>
                    </g>
                    <g transform="matrix(1,0,0,1,0,5.71062)">
                        <path d="M1462.66,871.675C1465.41,866.2 1476.9,856.565 1479.59,862.752C1482.11,868.527 1489.02,890.587 1489.9,894.936C1490.94,900.018 1478.84,901.947 1474.81,898.692C1470.36,895.107 1465.62,880.656 1463.24,873.431" style="fill:rgb(10,8,8);"/>
                    </g>
                    <g transform="matrix(1,0,0,1,0,5.71062)">
                        <path d="M1503.81,850.513C1507.18,843.652 1523.21,837.716 1526.11,847.534C1526.84,850.034 1525.63,853.869 1525.97,858.141C1526.98,870.627 1531.03,884.414 1530.89,887.377C1530.62,893.167 1517.46,896.306 1514.03,891.635C1510.31,886.573 1505.49,864.339 1503.72,853.226C1503.61,852.524 1503.23,850.843 1503.81,850.513Z" style="fill:rgb(10,8,8);"/>
                    </g>
                    <g transform="matrix(1,0,0,1,0,5.71062)">
                        <path d="M1554.1,851.042C1551.37,846.262 1548.51,842.155 1545.19,840.316C1540.22,838.44 1536.06,838.971 1532.51,841.36C1531.03,842.663 1529.89,844.654 1529.82,846.355L1543.89,848.648L1543.97,845.372C1545.77,846.032 1546.99,848.137 1548.63,849.083C1550.22,849.999 1551.73,850.107 1554.1,851.042Z"/>
                    </g>
                    <g transform="matrix(1,0,0,1,0,5.71062)">
                        <path d="M1531.25,850.984C1545.12,852.623 1558.22,856.265 1570.74,861.468C1576.22,867.526 1574.25,894.367 1569.96,905.735C1563.22,918.969 1550.72,932.664 1536.87,946.466L1530.74,1109.99C1530.74,1109.99 1460.28,1118.1 1459.11,1118.26C1457.93,1118.42 1472.38,954.117 1472.38,954.117C1462.22,936.512 1457.55,914.785 1455.82,890.858C1457.44,893.062 1463.07,893.371 1468.36,893.893C1469.55,901.981 1478.37,904.301 1484.63,903.572L1477.67,917.143L1489.1,905.993C1494.06,910.148 1501.59,910.387 1508.1,908.058C1502.29,916.465 1504.89,927.662 1511.91,940.325C1507,917.786 1505.76,901.15 1546.42,886.663L1554.05,900.574L1550.37,884.548C1553.54,884.46 1555.63,883.261 1556.74,881.05C1534.39,878.085 1525.53,863.743 1531.25,850.984Z"/>
                    </g>
                    <g transform="matrix(1,0,0,1,0,5.71062)">
                        <path d="M1529.9,870.567C1530.7,876.104 1531.55,881.612 1534.41,886.087C1539.6,886.192 1543.75,884.997 1546.87,882.504C1540.66,881.439 1535.08,877.057 1529.9,870.567Z"/>
                    </g>
                    <g transform="matrix(1,0,0,1,0,5.71062)">
                        <path d="M1527.83,849.991L1529.08,845.302L1530.74,847.397C1529.56,847.644 1528.61,848.771 1527.83,849.991Z"/>
                    </g>
                    <g transform="matrix(1,0,0,1,0,5.71062)">
                        <path d="M1553.3,851.72L1554.94,850.678L1556.34,852.823C1555.32,852.481 1554.3,852.124 1553.3,851.72Z" style="fill:none;"/>
                    </g>
                </g>
            </g>
        </g>
    </g>
</svg>
